<svg width="279" height="75" viewBox="0 0 279 75" fill="none" xmlns="http://www.w3.org/2000/svg">
<path d="M24.745 11.1094C25.7077 11.1161 26.6698 11.1228 27.5883 11.1228H36.9331C37.8514 11.1228 38.8136 11.1161 39.7762 11.1094C42.3679 11.0914 44.9634 11.0733 46.7201 11.1858C53.115 11.5954 57.5253 15.4701 58.0923 22.054C58.2268 24.4199 58.2235 27.2699 58.2198 30.6311C58.219 31.2079 58.2184 31.8009 58.2184 32.4081V41.7528C58.2184 42.36 58.219 42.952 58.2198 43.5288C58.2235 46.8904 58.2268 49.7409 58.0923 52.1069C57.5253 58.6908 53.115 62.5657 46.7201 62.9751C44.9634 63.0877 42.3679 63.0696 39.7762 63.0516C38.8136 63.0448 37.8514 63.0381 36.9331 63.0381H27.5883C26.6698 63.0381 25.7077 63.0448 24.745 63.0516C22.1535 63.0696 19.558 63.0877 17.8013 62.9751C11.4064 62.5657 6.99608 58.6908 6.42904 52.1069C6.29459 49.741 6.29785 46.8909 6.30168 43.5298C6.30234 42.953 6.30301 42.36 6.30301 41.7528V32.4081C6.30301 31.8009 6.30234 31.2089 6.30168 30.6321C6.29785 27.2709 6.29459 24.4199 6.42904 22.054C6.99608 15.4701 11.4064 11.5954 17.8013 11.1858C19.558 11.0733 22.1535 11.0914 24.745 11.1094Z" fill="url(#paint0_linear_0_1)"/>
<g filter="url(#filter0_dddddd_0_1)">
<path d="M14.7429 29.6191C14.7429 28.297 15.8148 27.225 17.1371 27.225H33.8962C37.2366 27.225 39.9445 29.933 39.9445 33.2735V44.4252C39.9445 45.7474 38.8727 46.8192 37.5504 46.8192H20.7913C17.4509 46.8192 14.7429 44.1113 14.7429 40.7709V29.6191Z" fill="url(#paint1_linear_0_1)"/>
<path d="M17.1371 27.5085H33.8962C37.08 27.5085 39.661 30.0896 39.661 33.2734V44.4251C39.661 45.5908 38.7161 46.5357 37.5504 46.5357H20.7913C17.6074 46.5357 15.0264 43.9547 15.0264 40.7709V29.6191C15.0264 28.4534 15.9714 27.5085 17.1371 27.5085Z" stroke="url(#paint2_linear_0_1)" stroke-width="0.567037"/>
</g>
<g filter="url(#filter1_dddddd_0_1)">
<path d="M41.4566 34.1623C41.4566 33.3473 41.8073 32.5717 42.4191 32.0335L47.2206 27.8096C48.2382 26.9145 49.8361 27.637 49.8361 28.9922V45.1001C49.8361 46.4427 48.2643 47.1697 47.2413 46.3005L42.8336 42.5557C41.9601 41.8136 41.4566 40.7252 41.4566 39.5789V34.1623Z" fill="url(#paint3_linear_0_1)"/>
<path d="M42.6064 32.2464L47.4079 28.0225C48.2424 27.2884 49.5526 27.8809 49.5526 28.9922V45.1001C49.5526 46.201 48.2636 46.7972 47.4248 46.0844L43.0172 42.3396C42.207 41.6513 41.7401 40.6419 41.7401 39.5789V34.1623C41.7401 33.4288 42.0557 32.7308 42.6064 32.2464Z" stroke="url(#paint4_linear_0_1)" stroke-width="0.567037"/>
</g>
<path d="M92.9318 30H89.4091C89.2008 28.9867 88.8362 28.0966 88.3153 27.3295C87.804 26.5625 87.179 25.9186 86.4403 25.3977C85.7112 24.8674 84.9015 24.4697 84.0114 24.2045C83.1212 23.9394 82.1932 23.8068 81.2273 23.8068C79.4659 23.8068 77.8703 24.2519 76.4403 25.142C75.0199 26.0322 73.8883 27.3438 73.0455 29.0767C72.2121 30.8097 71.7955 32.9356 71.7955 35.4545C71.7955 37.9735 72.2121 40.0994 73.0455 41.8324C73.8883 43.5653 75.0199 44.8769 76.4403 45.767C77.8703 46.6572 79.4659 47.1023 81.2273 47.1023C82.1932 47.1023 83.1212 46.9697 84.0114 46.7045C84.9015 46.4394 85.7112 46.0464 86.4403 45.5256C87.179 44.9953 87.804 44.3466 88.3153 43.5795C88.8362 42.803 89.2008 41.9129 89.4091 40.9091H92.9318C92.6667 42.3958 92.1837 43.7263 91.483 44.9006C90.7822 46.0748 89.911 47.0739 88.8693 47.8977C87.8277 48.7121 86.6581 49.3324 85.3608 49.7585C84.0729 50.1847 82.6951 50.3977 81.2273 50.3977C78.7462 50.3977 76.5398 49.7917 74.608 48.5795C72.6761 47.3674 71.1563 45.6439 70.0483 43.4091C68.9403 41.1742 68.3864 38.5227 68.3864 35.4545C68.3864 32.3864 68.9403 29.7348 70.0483 27.5C71.1563 25.2652 72.6761 23.5417 74.608 22.3295C76.5398 21.1174 78.7462 20.5114 81.2273 20.5114C82.6951 20.5114 84.0729 20.7244 85.3608 21.1506C86.6581 21.5767 87.8277 22.2017 88.8693 23.0256C89.911 23.84 90.7822 24.8343 91.483 26.0085C92.1837 27.1733 92.6667 28.5038 92.9318 30ZM107.033 50.4545C105.064 50.4545 103.335 49.9858 101.849 49.0483C100.371 48.1108 99.2161 46.7992 98.3828 45.1136C97.5589 43.428 97.147 41.4583 97.147 39.2045C97.147 36.9318 97.5589 34.9479 98.3828 33.2528C99.2161 31.5578 100.371 30.2415 101.849 29.304C103.335 28.3665 105.064 27.8977 107.033 27.8977C109.003 27.8977 110.727 28.3665 112.204 29.304C113.691 30.2415 114.846 31.5578 115.67 33.2528C116.503 34.9479 116.92 36.9318 116.92 39.2045C116.92 41.4583 116.503 43.428 115.67 45.1136C114.846 46.7992 113.691 48.1108 112.204 49.0483C110.727 49.9858 109.003 50.4545 107.033 50.4545ZM107.033 47.4432C108.53 47.4432 109.761 47.0597 110.727 46.2926C111.692 45.5256 112.407 44.517 112.871 43.267C113.335 42.017 113.567 40.6629 113.567 39.2045C113.567 37.7462 113.335 36.3873 112.871 35.1278C112.407 33.8684 111.692 32.8504 110.727 32.0739C109.761 31.2973 108.53 30.9091 107.033 30.9091C105.537 30.9091 104.306 31.2973 103.34 32.0739C102.374 32.8504 101.659 33.8684 101.195 35.1278C100.731 36.3873 100.499 37.7462 100.499 39.2045C100.499 40.6629 100.731 42.017 101.195 43.267C101.659 44.517 102.374 45.5256 103.34 46.2926C104.306 47.0597 105.537 47.4432 107.033 47.4432ZM125.389 36.875V50H122.037V28.1818H125.276V31.5909H125.56C126.071 30.483 126.848 29.5928 127.889 28.9205C128.931 28.2386 130.276 27.8977 131.923 27.8977C133.401 27.8977 134.693 28.2008 135.801 28.8068C136.909 29.4034 137.771 30.3125 138.386 31.5341C139.002 32.7462 139.31 34.2803 139.31 36.1364V50H135.957V36.3636C135.957 34.6496 135.512 33.3144 134.622 32.358C133.732 31.392 132.51 30.9091 130.957 30.9091C129.887 30.9091 128.931 31.1411 128.088 31.6051C127.255 32.0691 126.597 32.7462 126.114 33.6364C125.631 34.5265 125.389 35.6061 125.389 36.875ZM148.788 36.875V50H145.435V28.1818H148.674V31.5909H148.958C149.469 30.483 150.246 29.5928 151.288 28.9205C152.329 28.2386 153.674 27.8977 155.322 27.8977C156.799 27.8977 158.092 28.2008 159.2 28.8068C160.308 29.4034 161.169 30.3125 161.785 31.5341C162.4 32.7462 162.708 34.2803 162.708 36.1364V50H159.356V36.3636C159.356 34.6496 158.911 33.3144 158.021 32.358C157.13 31.392 155.909 30.9091 154.356 30.9091C153.286 30.9091 152.329 31.1411 151.487 31.6051C150.653 32.0691 149.995 32.7462 149.512 33.6364C149.029 34.5265 148.788 35.6061 148.788 36.875ZM177.982 50.4545C175.879 50.4545 174.066 49.9905 172.541 49.0625C171.026 48.125 169.857 46.8182 169.033 45.142C168.218 43.4564 167.811 41.4962 167.811 39.2614C167.811 37.0265 168.218 35.0568 169.033 33.3523C169.857 31.6383 171.002 30.303 172.47 29.3466C173.947 28.3807 175.671 27.8977 177.641 27.8977C178.777 27.8977 179.899 28.0871 181.007 28.4659C182.115 28.8447 183.124 29.4602 184.033 30.3125C184.942 31.1553 185.666 32.2727 186.206 33.6648C186.746 35.0568 187.016 36.7708 187.016 38.8068V40.2273H170.197V37.3295H183.607C183.607 36.0985 183.36 35 182.868 34.0341C182.385 33.0682 181.694 32.3059 180.794 31.7472C179.904 31.1884 178.853 30.9091 177.641 30.9091C176.305 30.9091 175.15 31.2405 174.175 31.9034C173.209 32.5568 172.465 33.4091 171.945 34.4602C171.424 35.5114 171.163 36.6383 171.163 37.8409V39.7727C171.163 41.4205 171.447 42.8172 172.016 43.9631C172.593 45.0994 173.393 45.9659 174.416 46.5625C175.439 47.1496 176.627 47.4432 177.982 47.4432C178.862 47.4432 179.658 47.3201 180.368 47.0739C181.088 46.8182 181.708 46.4394 182.229 45.9375C182.75 45.4261 183.152 44.7917 183.436 44.0341L186.675 44.9432C186.334 46.0417 185.761 47.0076 184.956 47.8409C184.151 48.6648 183.157 49.3087 181.973 49.7727C180.789 50.2273 179.459 50.4545 177.982 50.4545ZM200.979 50.4545C198.933 50.4545 197.172 49.9716 195.695 49.0057C194.217 48.0398 193.081 46.7093 192.286 45.0142C191.49 43.3191 191.092 41.3826 191.092 39.2045C191.092 36.9886 191.5 35.0331 192.314 33.3381C193.138 31.6335 194.284 30.303 195.751 29.3466C197.229 28.3807 198.952 27.8977 200.922 27.8977C202.456 27.8977 203.839 28.1818 205.07 28.75C206.301 29.3182 207.309 30.1136 208.095 31.1364C208.881 32.1591 209.369 33.3523 209.558 34.7159H206.206C205.95 33.7216 205.382 32.8409 204.501 32.0739C203.63 31.2973 202.456 30.9091 200.979 30.9091C199.672 30.9091 198.526 31.25 197.541 31.9318C196.566 32.6042 195.804 33.5559 195.254 34.7869C194.714 36.0085 194.445 37.4432 194.445 39.0909C194.445 40.7765 194.71 42.2443 195.24 43.4943C195.78 44.7443 196.537 45.715 197.513 46.4062C198.498 47.0975 199.653 47.4432 200.979 47.4432C201.85 47.4432 202.641 47.2917 203.351 46.9886C204.061 46.6856 204.662 46.25 205.155 45.6818C205.647 45.1136 205.998 44.4318 206.206 43.6364H209.558C209.369 44.9242 208.9 46.0843 208.152 47.1165C207.413 48.1392 206.433 48.9536 205.212 49.5597C204 50.1562 202.589 50.4545 200.979 50.4545ZM223.947 28.1818V31.0227H212.641V28.1818H223.947ZM215.936 22.9545H219.288V43.75C219.288 44.697 219.426 45.4072 219.7 45.8807C219.984 46.3447 220.344 46.6572 220.78 46.8182C221.225 46.9697 221.694 47.0455 222.186 47.0455C222.555 47.0455 222.858 47.0265 223.095 46.9886C223.332 46.9413 223.521 46.9034 223.663 46.875L224.345 49.8864C224.118 49.9716 223.801 50.0568 223.393 50.142C222.986 50.2367 222.47 50.2841 221.845 50.2841C220.898 50.2841 219.97 50.0805 219.061 49.6733C218.161 49.2661 217.413 48.6458 216.817 47.8125C216.23 46.9792 215.936 45.928 215.936 44.6591V22.9545ZM228.99 50V28.1818H232.342V50H228.99ZM230.695 24.5455C230.041 24.5455 229.478 24.3229 229.004 23.8778C228.54 23.4328 228.308 22.8977 228.308 22.2727C228.308 21.6477 228.54 21.1127 229.004 20.6676C229.478 20.2225 230.041 20 230.695 20C231.348 20 231.907 20.2225 232.371 20.6676C232.844 21.1127 233.081 21.6477 233.081 22.2727C233.081 22.8977 232.844 23.4328 232.371 23.8778C231.907 24.3229 231.348 24.5455 230.695 24.5455ZM256.323 28.1818L248.255 50H244.846L236.778 28.1818H240.414L246.437 45.5682H246.664L252.687 28.1818H256.323ZM269.114 50.4545C267.012 50.4545 265.199 49.9905 263.674 49.0625C262.159 48.125 260.989 46.8182 260.165 45.142C259.351 43.4564 258.944 41.4962 258.944 39.2614C258.944 37.0265 259.351 35.0568 260.165 33.3523C260.989 31.6383 262.135 30.303 263.603 29.3466C265.08 28.3807 266.804 27.8977 268.773 27.8977C269.91 27.8977 271.032 28.0871 272.14 28.4659C273.248 28.8447 274.256 29.4602 275.165 30.3125C276.075 31.1553 276.799 32.2727 277.339 33.6648C277.879 35.0568 278.148 36.7708 278.148 38.8068V40.2273H261.33V37.3295H274.739C274.739 36.0985 274.493 35 274.001 34.0341C273.518 33.0682 272.826 32.3059 271.927 31.7472C271.037 31.1884 269.986 30.9091 268.773 30.9091C267.438 30.9091 266.283 31.2405 265.308 31.9034C264.342 32.5568 263.598 33.4091 263.077 34.4602C262.557 35.5114 262.296 36.6383 262.296 37.8409V39.7727C262.296 41.4205 262.58 42.8172 263.148 43.9631C263.726 45.0994 264.526 45.9659 265.549 46.5625C266.572 47.1496 267.76 47.4432 269.114 47.4432C269.995 47.4432 270.79 47.3201 271.501 47.0739C272.22 46.8182 272.841 46.4394 273.362 45.9375C273.882 45.4261 274.285 44.7917 274.569 44.0341L277.808 44.9432C277.467 46.0417 276.894 47.0076 276.089 47.8409C275.284 48.6648 274.29 49.3087 273.106 49.7727C271.922 50.2273 270.592 50.4545 269.114 50.4545Z" fill="white"/>
<defs>
<filter id="filter0_dddddd_0_1" x="10.2066" y="25.5239" width="34.2742" height="28.6668" filterUnits="userSpaceOnUse" color-interpolation-filters="sRGB">
<feFlood flood-opacity="0" result="BackgroundImageFix"/>
<feColorMatrix in="SourceAlpha" type="matrix" values="0 0 0 0 0 0 0 0 0 0 0 0 0 0 0 0 0 0 127 0" result="hardAlpha"/>
<feOffset dy="0.155601"/>
<feGaussianBlur stdDeviation="0.057319"/>
<feColorMatrix type="matrix" values="0 0 0 0 0.0509804 0 0 0 0 0.121569 0 0 0 0 0.396078 0 0 0 0.189957 0"/>
<feBlend mode="multiply" in2="BackgroundImageFix" result="effect1_dropShadow_0_1"/>
<feColorMatrix in="SourceAlpha" type="matrix" values="0 0 0 0 0 0 0 0 0 0 0 0 0 0 0 0 0 0 127 0" result="hardAlpha"/>
<feOffset dy="0.305287"/>
<feGaussianBlur stdDeviation="0.127482"/>
<feColorMatrix type="matrix" values="0 0 0 0 0.0509804 0 0 0 0 0.121569 0 0 0 0 0.396078 0 0 0 0.368551 0"/>
<feBlend mode="multiply" in2="effect1_dropShadow_0_1" result="effect2_dropShadow_0_1"/>
<feColorMatrix in="SourceAlpha" type="matrix" values="0 0 0 0 0 0 0 0 0 0 0 0 0 0 0 0 0 0 127 0" result="hardAlpha"/>
<feOffset dy="0.469499"/>
<feGaussianBlur stdDeviation="0.21833"/>
<feColorMatrix type="matrix" values="0 0 0 0 0.0509804 0 0 0 0 0.121569 0 0 0 0 0.396078 0 0 0 0.3 0"/>
<feBlend mode="multiply" in2="effect2_dropShadow_0_1" result="effect3_dropShadow_0_1"/>
<feColorMatrix in="SourceAlpha" type="matrix" values="0 0 0 0 0 0 0 0 0 0 0 0 0 0 0 0 0 0 127 0" result="hardAlpha"/>
<feOffset dy="0.688904"/>
<feGaussianBlur stdDeviation="0.69336"/>
<feColorMatrix type="matrix" values="0 0 0 0 0.0509804 0 0 0 0 0.121569 0 0 0 0 0.396078 0 0 0 0.3 0"/>
<feBlend mode="multiply" in2="effect3_dropShadow_0_1" result="effect4_dropShadow_0_1"/>
<feColorMatrix in="SourceAlpha" type="matrix" values="0 0 0 0 0 0 0 0 0 0 0 0 0 0 0 0 0 0 127 0" result="hardAlpha"/>
<feOffset dy="1.07196"/>
<feGaussianBlur stdDeviation="1.28906"/>
<feColorMatrix type="matrix" values="0 0 0 0 0.0509804 0 0 0 0 0.121569 0 0 0 0 0.396078 0 0 0 0.29 0"/>
<feBlend mode="overlay" in2="effect4_dropShadow_0_1" result="effect5_dropShadow_0_1"/>
<feColorMatrix in="SourceAlpha" type="matrix" values="0 0 0 0 0 0 0 0 0 0 0 0 0 0 0 0 0 0 127 0" result="hardAlpha"/>
<feOffset dy="2.83518"/>
<feGaussianBlur stdDeviation="2.26815"/>
<feColorMatrix type="matrix" values="0 0 0 0 0.0509804 0 0 0 0 0.121569 0 0 0 0 0.396078 0 0 0 0.45 0"/>
<feBlend mode="multiply" in2="effect5_dropShadow_0_1" result="effect6_dropShadow_0_1"/>
<feBlend mode="normal" in="SourceGraphic" in2="effect6_dropShadow_0_1" result="shape"/>
</filter>
<filter id="filter1_dddddd_0_1" x="36.9203" y="25.7129" width="17.4521" height="28.3368" filterUnits="userSpaceOnUse" color-interpolation-filters="sRGB">
<feFlood flood-opacity="0" result="BackgroundImageFix"/>
<feColorMatrix in="SourceAlpha" type="matrix" values="0 0 0 0 0 0 0 0 0 0 0 0 0 0 0 0 0 0 127 0" result="hardAlpha"/>
<feOffset dy="0.155601"/>
<feGaussianBlur stdDeviation="0.057319"/>
<feColorMatrix type="matrix" values="0 0 0 0 0.0509804 0 0 0 0 0.121569 0 0 0 0 0.396078 0 0 0 0.189957 0"/>
<feBlend mode="multiply" in2="BackgroundImageFix" result="effect1_dropShadow_0_1"/>
<feColorMatrix in="SourceAlpha" type="matrix" values="0 0 0 0 0 0 0 0 0 0 0 0 0 0 0 0 0 0 127 0" result="hardAlpha"/>
<feOffset dy="0.305287"/>
<feGaussianBlur stdDeviation="0.127482"/>
<feColorMatrix type="matrix" values="0 0 0 0 0.0509804 0 0 0 0 0.121569 0 0 0 0 0.396078 0 0 0 0.368551 0"/>
<feBlend mode="multiply" in2="effect1_dropShadow_0_1" result="effect2_dropShadow_0_1"/>
<feColorMatrix in="SourceAlpha" type="matrix" values="0 0 0 0 0 0 0 0 0 0 0 0 0 0 0 0 0 0 127 0" result="hardAlpha"/>
<feOffset dy="0.469499"/>
<feGaussianBlur stdDeviation="0.21833"/>
<feColorMatrix type="matrix" values="0 0 0 0 0.0509804 0 0 0 0 0.121569 0 0 0 0 0.396078 0 0 0 0.3 0"/>
<feBlend mode="multiply" in2="effect2_dropShadow_0_1" result="effect3_dropShadow_0_1"/>
<feColorMatrix in="SourceAlpha" type="matrix" values="0 0 0 0 0 0 0 0 0 0 0 0 0 0 0 0 0 0 127 0" result="hardAlpha"/>
<feOffset dy="0.688904"/>
<feGaussianBlur stdDeviation="0.69336"/>
<feColorMatrix type="matrix" values="0 0 0 0 0.0509804 0 0 0 0 0.121569 0 0 0 0 0.396078 0 0 0 0.3 0"/>
<feBlend mode="multiply" in2="effect3_dropShadow_0_1" result="effect4_dropShadow_0_1"/>
<feColorMatrix in="SourceAlpha" type="matrix" values="0 0 0 0 0 0 0 0 0 0 0 0 0 0 0 0 0 0 127 0" result="hardAlpha"/>
<feOffset dy="1.07196"/>
<feGaussianBlur stdDeviation="1.28906"/>
<feColorMatrix type="matrix" values="0 0 0 0 0.0509804 0 0 0 0 0.121569 0 0 0 0 0.396078 0 0 0 0.29 0"/>
<feBlend mode="overlay" in2="effect4_dropShadow_0_1" result="effect5_dropShadow_0_1"/>
<feColorMatrix in="SourceAlpha" type="matrix" values="0 0 0 0 0 0 0 0 0 0 0 0 0 0 0 0 0 0 127 0" result="hardAlpha"/>
<feOffset dy="2.83518"/>
<feGaussianBlur stdDeviation="2.26815"/>
<feColorMatrix type="matrix" values="0 0 0 0 0.0509804 0 0 0 0 0.121569 0 0 0 0 0.396078 0 0 0 0.45 0"/>
<feBlend mode="multiply" in2="effect5_dropShadow_0_1" result="effect6_dropShadow_0_1"/>
<feBlend mode="normal" in="SourceGraphic" in2="effect6_dropShadow_0_1" result="shape"/>
</filter>
<linearGradient id="paint0_linear_0_1" x1="32.2606" y1="11.096" x2="32.2606" y2="63.0649" gradientUnits="userSpaceOnUse">
<stop stop-color="#A4C1FF"/>
<stop offset="1" stop-color="#0E78F9"/>
</linearGradient>
<linearGradient id="paint1_linear_0_1" x1="27.3438" y1="27.225" x2="27.3438" y2="46.8192" gradientUnits="userSpaceOnUse">
<stop stop-color="white"/>
<stop offset="1" stop-color="#C5D4F7"/>
</linearGradient>
<linearGradient id="paint2_linear_0_1" x1="27.3438" y1="27.225" x2="27.3438" y2="46.8192" gradientUnits="userSpaceOnUse">
<stop stop-color="white"/>
<stop offset="1" stop-color="#637ACA"/>
</linearGradient>
<linearGradient id="paint3_linear_0_1" x1="45.6464" y1="27.4141" x2="45.6464" y2="46.6783" gradientUnits="userSpaceOnUse">
<stop stop-color="white"/>
<stop offset="1" stop-color="#C5D4F7"/>
</linearGradient>
<linearGradient id="paint4_linear_0_1" x1="45.6464" y1="27.4141" x2="45.6464" y2="46.6782" gradientUnits="userSpaceOnUse">
<stop stop-color="white"/>
<stop offset="1" stop-color="#637ACA"/>
</linearGradient>
</defs>
</svg>
